<svg>
  <symbol xmlns="http://www.w3.org/2000/svg" viewBox="0 0 20 20" id="bell">
     <path fill="#555" d="M9.98546213,0 C11.0738151,0 11.9560995,0.897956369 11.9560995,2.00564169 L11.9474262,2.16857402 C12.8154358,2.52052079 13.6536505,3.10521908 14.3982383,3.87807132 C15.2598324,4.77237143 15.7643314,5.95615219 15.9194472,7.47478499 L15.9194472,12.9530263 L17.110036,15.0509445 C17.5095265,15.7167459 17.6377183,16.2749986 17.3257968,16.7576931 C17.0403571,17.1994072 16.5294845,17.3525518 15.8350964,17.3412244 L13.1652799,17.3417555 C12.8549424,18.85959 11.5332274,20 9.94980414,20 C8.36638086,20 7.04466588,18.85959 6.73432835,17.3417555 L3.77764595,17.3412244 L3.72235669,17.3388521 C3.09539086,17.2849519 2.6282251,16.9815541 2.52321251,16.3980734 C2.45200959,16.0024491 2.54550135,15.5756677 2.79146293,15.0675726 L4.01624036,12.8871114 L4.01880221,7.41484929 C4.12578521,6.20521083 4.57841144,5.07753145 5.36675672,4.0436623 C6.03387517,3.16877511 6.98677948,2.52517246 8.02078708,2.15401297 C8.01662368,2.10512435 8.01482476,2.05547904 8.01482476,2.00564169 C8.01482476,0.897956369 8.89710916,0 9.98546213,0 Z M11.8025327,17.3422137 L8.09707557,17.3422137 C8.37210013,18.1126198 9.09781066,18.6629055 9.94980414,18.6629055 C10.8017976,18.6629055 11.5275081,18.1126198 11.8025327,17.3422137 Z M10.0815452,3.12397089 C8.72815253,3.12397089 7.23880206,3.76947015 6.40463611,4.86343046 C5.76697658,5.69968397 5.41116271,6.58616367 5.32991538,7.47478499 L5.32991538,13.0648706 C5.32991538,13.1812593 5.30006071,13.2956317 5.24330449,13.3966743 L3.95167509,15.693396 C3.89083954,15.8198362 3.85259204,15.9240447 3.83205632,16.0041304 L15.8455449,16.0042146 C15.9671736,16.0061838 16.0586311,16.0014725 16.1220735,15.9985769 C16.0894627,15.9259816 16.0429416,15.8378504 15.9806338,15.7337983 L14.6937782,13.4666494 C14.6360709,13.3649821 14.6056889,13.2496401 14.6056889,13.1322274 L14.6093789,7.54554741 C14.4878881,6.38390365 14.1034843,5.48192009 13.4601893,4.81420571 C12.4192675,3.73377068 11.1975803,3.12397089 10.0815452,3.12397089 Z M9.98546213,1.33709446 C9.68091977,1.33709446 9.42478227,1.54802154 9.35038998,1.83416683 C9.59577409,1.80261438 9.84002218,1.78687644 10.0815452,1.78687644 C10.2594993,1.78687644 10.4380858,1.79772996 10.6167735,1.81906594 C10.5378669,1.54127232 10.2850925,1.33709446 9.98546213,1.33709446 Z"/>
  </symbol>
   <symbol xmlns="http://www.w3.org/2000/svg" viewBox="0 0 32 32" id="youtube">
        <path d="M12.932 20.459v-8.917l7.839 4.459zM30.368 8.735c-0.354-1.301-1.354-2.307-2.625-2.663l-0.027-0.006c-3.193-0.406-6.886-0.638-10.634-0.638-0.381 0-0.761 0.002-1.14 0.007l0.058-0.001c-0.322-0.004-0.701-0.007-1.082-0.007-3.748 0-7.443 0.232-11.070 0.681l0.434-0.044c-1.297 0.363-2.297 1.368-2.644 2.643l-0.006 0.026c-0.4 2.109-0.628 4.536-0.628 7.016 0 0.088 0 0.176 0.001 0.263l-0-0.014c-0 0.074-0.001 0.162-0.001 0.25 0 2.48 0.229 4.906 0.666 7.259l-0.038-0.244c0.354 1.301 1.354 2.307 2.625 2.663l0.027 0.006c3.193 0.406 6.886 0.638 10.634 0.638 0.38 0 0.76-0.002 1.14-0.007l-0.058 0.001c0.322 0.004 0.702 0.007 1.082 0.007 3.749 0 7.443-0.232 11.070-0.681l-0.434 0.044c1.298-0.362 2.298-1.368 2.646-2.643l0.006-0.026c0.399-2.109 0.627-4.536 0.627-7.015 0-0.088-0-0.176-0.001-0.263l0 0.013c0-0.074 0.001-0.162 0.001-0.25 0-2.48-0.229-4.906-0.666-7.259l0.038 0.244z"></path>
  </symbol>
   <symbol xmlns="http://www.w3.org/2000/svg" viewBox="0 0 32 32" id="logOut">
        <desc/>

        <g>

        <polyline fill="none" points="21,18 21,11    11,1 1,11 1,31 21,31 21,24  " stroke="" stroke-linejoin="round" stroke-miterlimit="10" stroke-width="2"/>

        <line fill="none" stroke="" stroke-linejoin="round" stroke-miterlimit="10" stroke-width="2" x1="10" x2="31" y1="21" y2="21"/>

        <polyline fill="none" points="25,15 31,21    25,27  " stroke="" stroke-linejoin="round" stroke-miterlimit="10" stroke-width="2"/>

        </g>
  </symbol>
  <symbol xmlns="http://www.w3.org/2000/svg" viewBox="-4 0 24 24" id="micro">
    <path   d="M8 0C5.23858 0 3 2.23858 3 5V13C3 15.7614 5.23858 18 8 18C10.7614 18 13 15.7614 13 13V5C13 2.23858 10.7614 0 8 0z" fill=""/><path d="M2 11.5882C2 11.0359 1.55228 10.5882 1 10.5882C0.44772 10.5882 0 11.0359 0 11.5882V13.647C0 17.4729 3.12354 20.4939 7 20.9425V22H5C4.44772 22 4 22.4477 4 23C4 23.5523 4.44772 24 5 24H11C11.5523 24 12 23.5523 12 23C12 22.4477 11.5523 22 11 22H9V20.9425C12.8765 20.4939 16 17.4729 16 13.647V11.5882C16 11.0359 15.5523 10.5882 15 10.5882C14.4477 10.5882 14 11.0359 14 11.5882V13.647C14 16.5143 11.4072 19 8 19C4.59282 19 2 16.5143 2 13.647V11.5882z" fill=""/>
  </symbol>
   <symbol xmlns="http://www.w3.org/2000/svg" viewBox="0 0 14 14" id="profile">
          <path
     d="M 9.412959,0.00215164 C 8.1693111,0.14587964 7.4631991,1.5093558 7.3733471,2.6936522 7.2264421,3.7464942 7.6860601,5.0899481 8.7918901,5.3320382 9.750208,5.4175142 10.512633,4.5171926 10.825819,3.6583651 11.195679,2.5833906 11.206482,1.147845 10.309038,0.34250684 10.059753,0.12647084 9.739671,-0.00476426 9.412959,0.00215164 z m -5.0729339,0.056367 c -1.034807,0.074858 -1.5652,1.27744256 -1.493223,2.24276386 0.0088,1.2907239 0.717612,2.7424122 2.010186,3.0488129 0.963956,0.1042448 1.606661,-0.9181087 1.66656,-1.812036 0.123011,-1.3680543 -0.483132,-3.02530546 -1.855765,-3.43834986 -0.106687,-0.029465 -0.217332,-0.044089 -0.327758,-0.041191 z M 12.655043,4.2036246 c -1.388365,0.1017608 -2.266355,1.5813816 -2.326691,2.9184062 -0.07305,0.8707439 0.489487,1.9657608 1.436683,1.9057498 C 13.181597,8.8776256 14.035636,7.298817 14.00043,5.9270567 13.99133,5.1373276 13.490879,4.2365389 12.655043,4.2036246 z M 0.01075614,6.0085263 c -0.12855096,1.481506 0.908149,3.1560203 2.41413596,3.2493013 0.912778,-0.06096 1.343188,-1.121093 1.238576,-1.9598358 C 3.5801081,6.0604403 2.7526501,4.7931558 1.6775691,4.6275979 0.60248914,4.4620399 -0.00628982,5.221568 0.01075614,6.0085263 z M 7.1593651,7.2723472 c -1.411887,0.00329 -2.70277,0.9264694 -3.392913,2.1755314 -0.578235,0.9334254 -1.050947,1.9901564 -1.140853,3.1053424 0.01967,0.860048 0.840276,1.575842 1.663122,1.404534 1.173683,-0.152345 2.222485,-0.967418 3.44297,-0.8147 1.014283,0.08097 1.8507729,0.867482 2.8748439,0.856051 0.994345,0.03734 1.56796,-1.102139 1.188753,-1.994632 C 11.387234,10.726579 10.596107,9.6151936 9.746977,8.6142466 9.069618,7.87643 8.1824521,7.2396817 7.1593651,7.2723472 z"
     id="pet"
     style="fill-opacity:0.9;stroke:none" />
  </symbol>
    <symbol xmlns="http://www.w3.org/2000/svg" viewBox="0 0 24 24" id="logoCat">
        <path d="M19.5,22H14a1,1,0,0,1-1-1V20a1,1,0,0,1,1-1h5.5A1.5,1.5,0,0,1,21,20.5h0A1.5,1.5,0,0,1,19.5,22Z" style="fill:#ffa500"/><path d="M11,10h6a0,0,0,0,1,0,0V22a0,0,0,0,1,0,0H8a4,4,0,0,1-4-4V17A7,7,0,0,1,11,10Z" style="fill:#ffa500"/><path d="M12,22h0a1,1,0,0,1-1-1V20h2v1A1,1,0,0,1,12,22Z" style="fill:#fff"/><path d="M16,22h0a1,1,0,0,1-1-1V20h2v1A1,1,0,0,1,16,22Z" style="fill:#fff"/><path d="M14,14h0a2.99994,2.99994,0,0,1-3-3V9h6v2A2.99994,2.99994,0,0,1,14,14Z" style="fill:#fff"/><path d="M13,4,10,6V2.2071a.5.5,0,0,1,.8536-.3535Z" style="fill:#ffa500"/><path d="M15,4l3,2V2.2071a.5.5,0,0,0-.8536-.3535Z" style="fill:#ffa500"/><path d="M14,11h0a4,4,0,0,1-4-4V4h8V7A4.00005,4.00005,0,0,1,14,11Z" style="fill:#ffa500"/><circle cx="12.25" cy="6.75" r="0.75" style="fill:#fff"/><circle cx="16" cy="6.75" r="0.75" style="fill:#fff"/>
  </symbol>
    <symbol xmlns="http://www.w3.org/2000/svg" viewBox="0 0 24 24" id="setting">
        <g id="style=linear">
        <g id="setting">
        <path id="vector" d="M12 15C13.6569 15 15 13.6569 15 12C15 10.3431 13.6569 9 12 9C10.3431 9 9 10.3431 9 12C9 13.6569 10.3431 15 12 15Z" stroke="#000000" stroke-width="1.5" stroke-miterlimit="10" stroke-linecap="round" stroke-linejoin="round"/>
        <path id="vector_2" d="M2 12.88V11.12C2 10.08 2.85 9.22 3.9 9.22C5.71 9.22 6.45 7.94 5.54 6.37C5.02 5.47 5.33 4.3 6.24 3.78L7.97 2.79C8.76 2.32 9.78 2.6 10.25 3.39L10.36 3.58C11.26 5.15 12.74 5.15 13.65 3.58L13.76 3.39C14.23 2.6 15.25 2.32 16.04 2.79L17.77 3.78C18.68 4.3 18.99 5.47 18.47 6.37C17.56 7.94 18.3 9.22 20.11 9.22C21.15 9.22 22.01 10.07 22.01 11.12V12.88C22.01 13.92 21.16 14.78 20.11 14.78C18.3 14.78 17.56 16.06 18.47 17.63C18.99 18.54 18.68 19.7 17.77 20.22L16.04 21.21C15.25 21.68 14.23 21.4 13.76 20.61L13.65 20.42C12.75 18.85 11.27 18.85 10.36 20.42L10.25 20.61C9.78 21.4 8.76 21.68 7.97 21.21L6.24 20.22C5.33 19.7 5.02 18.53 5.54 17.63C6.45 16.06 5.71 14.78 3.9 14.78C2.85 14.78 2 13.92 2 12.88Z" stroke="#000000" stroke-width="1.5" stroke-miterlimit="10" stroke-linecap="round" stroke-linejoin="round"/>
        </g>
        </g>
  </symbol>
    <symbol xmlns="http://www.w3.org/2000/svg" viewBox="0 0 24 24" id="search">
        <circle cx="11" cy="11" r="7" stroke="#33363F" stroke-width="2"/>
        <path d="M20 20L17 17" stroke="#33363F" stroke-width="2" stroke-linecap="round"/>
  </symbol>
  <symbol xmlns="http://www.w3.org/2000/svg" viewBox="0 0 36 36" id="catHead1">
        <path fill="#FFCC4D" d="M32.348 13.999s3.445-8.812 1.651-11.998c-.604-1.073-8 1.998-10.723 5.442c0 0-2.586-.86-5.276-.86s-5.276.86-5.276.86C10.001 3.999 2.605.928 2.001 2.001C.207 5.187 3.652 13.999 3.652 13.999c-.897 1.722-1.233 4.345-1.555 7.16c-.354 3.086.35 5.546.658 6.089c.35.617 2.123 2.605 4.484 4.306c3.587 2.583 8.967 3.445 10.761 3.445s7.174-.861 10.761-3.445c2.361-1.701 4.134-3.689 4.484-4.306c.308-.543 1.012-3.003.659-6.089c-.324-2.814-.659-5.438-1.556-7.16z"></path><path fill="#F18F26" d="M2.359 2.971c.2-.599 5.348 2.173 6.518 5.404c0 0-3.808 2.624-4.528 4.624c0 0-2.99-7.028-1.99-10.028z"></path><path fill="#FFCC4D" d="M5.98 7.261c0-1.414 5.457 2.733 4.457 3.733s-1.255.72-2.255 1.72S5.98 8.261 5.98 7.261z"></path><path fill="#F18F26" d="M33.641 2.971c-.2-.599-5.348 2.173-6.518 5.404c0 0 3.808 2.624 4.528 4.624c0 0 2.99-7.028 1.99-10.028z"></path><path fill="#FFCC4D" d="M30.02 7.261c0-1.414-5.457 2.733-4.457 3.733s1.255.72 2.255 1.72s2.202-4.453 2.202-5.453z"></path><path fill="#292F33" d="M14.001 20.001a2 2 0 1 1-3.998 0A2 2 0 0 1 14 20zm11.998 0a2 2 0 1 1-3.998 0a2 2 0 0 1 3.998 0z"></path><path fill="#FEE7B8" d="M2.201 30.458a.5.5 0 0 1-.31-.892c.162-.127 4.02-3.12 10.648-2.605a.5.5 0 0 1 .46.536c-.021.275-.257.501-.537.46c-6.233-.474-9.915 2.366-9.951 2.395a.516.516 0 0 1-.31.106zm8.868-4.663a.512.512 0 0 1-.149-.022c-4.79-1.497-8.737-.347-8.777-.336a.499.499 0 1 1-.288-.957c.173-.052 4.286-1.247 9.362.338a.5.5 0 0 1-.148.977zm22.73 4.663a.5.5 0 0 0 .31-.892c-.162-.127-4.02-3.12-10.648-2.605a.5.5 0 0 0-.46.536c.022.275.257.501.537.46c6.233-.474 9.915 2.366 9.951 2.395c.093.07.202.106.31.106zm-8.868-4.663c.049 0 .1-.007.149-.022c4.79-1.497 8.737-.347 8.777-.336a.499.499 0 1 0 .288-.957c-.173-.052-4.286-1.247-9.362.338a.5.5 0 0 0 .148.977z"></path><path fill="#67757F" d="M24.736 30.898a.5.5 0 0 0-.643-.294c-.552.206-1.076.311-1.559.311c-1.152 0-1.561-.306-2.033-.659c-.451-.338-.956-.715-1.99-.803v-2.339a.5.5 0 0 0-1 0v2.373c-.81.115-1.346.439-1.816.743c-.568.367-1.059.685-2.083.685c-.482 0-1.006-.104-1.558-.311a.501.501 0 0 0-.35.938c.664.247 1.306.373 1.907.373c1.319 0 2.014-.449 2.627-.845c.524-.339.98-.631 1.848-.635c.992.008 1.358.278 1.815.621c.538.403 1.147.859 2.633.859c.601 0 1.244-.126 1.908-.373a.5.5 0 0 0 .294-.644z"></path><path fill="#E75A70" d="M19.4 24.807h-2.8c-.64 0-1.163.523-1.163 1.163c0 .639.523 1.163 1.163 1.163h.237v.345c0 .639.523 1.163 1.163 1.163s1.163-.523 1.163-1.163v-.345h.237c.639 0 1.163-.523 1.163-1.163s-.524-1.163-1.163-1.163z"></path><path fill="#F18F26" d="M18.022 17.154a.5.5 0 0 1-.5-.5V8.37a.5.5 0 0 1 1 0v8.284c0 .277-.223.5-.5.5zM21 15.572a.5.5 0 0 1-.5-.5c0-2.882 1.232-5.21 1.285-5.308a.5.5 0 0 1 .881.473c-.012.021-1.166 2.213-1.166 4.835a.5.5 0 0 1-.5.5zm-6 0a.5.5 0 0 1-.5-.5c0-2.623-1.155-4.814-1.167-4.835a.501.501 0 0 1 .881-.473c.053.098 1.285 2.426 1.285 5.308a.499.499 0 0 1-.499.5z"></path>
  </symbol>
  <symbol xmlns="http://www.w3.org/2000/svg" viewBox="0 0 64 64" id="catHead2">
        <path d="M4.5 2.2c-3.5 2.2-3.4 25.5.8 33l26.1-16c-4-7.1-23.6-19-26.9-17" fill="#4c5359">

        </path>

        <path d="M9.5 11.3c-1.5.9-2.2 16.2.4 21l16.7-10.2c-2.4-4.6-15.7-11.6-17.1-10.8" fill="#f7a4a4">

        </path>

        <path d="M59.5 2.2c3.5 2.2 3.4 25.5-.7 33l-26.1-16c3.9-7.1 23.5-19 26.8-17" fill="#4c5359">

        </path>

        <path d="M54.5 11.3c1.5.9 2.2 16.2-.4 21L37.3 22.1c2.5-4.6 15.8-11.6 17.2-10.8" fill="#f7a4a4">

        </path>

        <path d="M31.8 13.1C4.7 13.1 2.2 32.5 2.2 43.5C2.2 48 15.4 62 31.8 62c16.4 0 29.6-14 29.6-18.5c0-11-2.5-30.4-29.6-30.4" fill="#4c5359">

        </path>

        <path d="M24.2 38.7s-3.1 4.8-8.8 3.3c-5.7-1.5-6-7.2-6-7.2s3.1-4.8 8.8-3.3c5.8 1.5 6 7.2 6 7.2" fill="#bfffab">

        </path>

        <path d="M23.6 36.2s-2.7 3-6.5 3c-4.1 0-6.5-5.9-6.5-5.9s2.7-3.1 7.6-1.9c4.5 1.2 5.4 4.8 5.4 4.8" fill="#93e67f">

        </path>

        <path d="M19.4 36.1c0 6.6-3.2 6.6-3.2 0c.1-6.6 3.2-6.6 3.2 0" fill="#4c5359">

        </path>

        <path d="M39.4 38.7s3.1 4.8 8.8 3.3c5.7-1.5 6-7.2 6-7.2s-3.1-4.8-8.8-3.3c-5.8 1.5-6 7.2-6 7.2" fill="#bfffab">

        </path>

        <path d="M39.9 36.2s2.7 3 6.5 3c4.1 0 6.5-5.9 6.5-5.9s-2.7-3.1-7.6-1.9c-4.5 1.2-5.4 4.8-5.4 4.8" fill="#93e67f">

        </path>

        <path d="M44.1 36.1c0 6.6 3.2 6.6 3.2 0s-3.2-6.6-3.2 0" fill="#4c5359">

        </path>

        <path d="M40.4 44c-2.6-2-5.4-8.7-8.6-8.7S25.7 42 23.1 44c-4.1 3.2-15 6.8-15 6.8S19.7 61 31.7 61s23.6-10.2 23.6-10.2c.1 0-10.8-3.6-14.9-6.8" fill="#ffffff">

        </path>

        <ellipse cx="31.8" cy="54.5" rx="1.7" ry="2.5" fill="#ff94a4">

        </ellipse>

        <g fill="#4c5359">

        <path d="M40.2 53.1c-1 .6-2.1.8-3.1.8c-1.1-.1-2.1-.4-2.9-1.1c-.8-.6-1.4-1.5-1.6-2.6l-.8-4.5l-.8 4.5c-.2 1-.8 1.9-1.6 2.6c-.8.7-1.9 1-2.9 1.1c-1.1 0-2.2-.2-3.1-.8c-1-.6-1.8-1.5-2.2-2.7c.1 1.3.7 2.5 1.7 3.4c1 .9 2.3 1.4 3.5 1.4c1.4.1 2.7-.3 3.8-1.1c.6-.4 1.1-1 1.5-1.6c.4.6.9 1.2 1.5 1.6c1.1.8 2.5 1.2 3.8 1.1c1.3-.1 2.6-.6 3.6-1.4c1-.9 1.7-2.1 1.7-3.4c-.3 1.1-1.1 2.1-2.1 2.7">

        </path>

        <path d="M35.8 44.8c-.8-1-3.3-1.1-4-1.1c-.7 0-3.2.1-4 1.1c-.6.7-.1 2.5 1.4 4c1 1 1.9 1.3 2.6 1.3c.7 0 1.7-.3 2.6-1.3c1.5-1.6 2-3.3 1.4-4">

        </path>

        </g>
  </symbol>
  <symbol xmlns="http://www.w3.org/2000/svg" viewBox="0 0 72 72" id="catHead3">
            <g id="color">
                <path fill="#F4AA41" stroke="none" d="M58.4953,11.21c0,0-10.4076,2.3754-15.5743,6.7088c0,0-9-2.5-13.8333,0.1667 c0,0-9.6549-6.7318-15.6549-6.7318c0,0-5.0326,3.75,0.3216,21.0651c0,0-2.6667,10.6667,1.6667,16.3333s9.8333,9.5,9.8333,9.5 l8.7917,4.0417l3.9583,0.1667l9.9167-4.375c0,0,6.6667-4.8333,8.8333-9.5c2.1667-4.6667,2.1667-13.8333,2.1667-13.8333l-1-3.3333 l2.8333-11.0208L58.4953,11.21z"/>
                <path fill="#FFFFFF" stroke="none" d="M30.8377,47.3355c0,0-7.625,2.75-1.375,9.25c0,0-0.9739,4.625,3.8034,5.4849h5.1966 c2.0529,0.0031,4.5833-1.0683,3.7404-5.3628c0,0,7.5513-6.3722-1.3654-9.3722l-4.875,2L30.8377,47.3355z"/>
            </g>
            <g id="hair"/>
            <g id="skin"/>
            <g id="skin-shadow"/>
            <g id="line">
                <ellipse cx="45.0854" cy="38.1033" rx="1.6461" ry="2.8119" fill="#000000" stroke="none"/>
                <ellipse cx="26.8427" cy="38.1033" rx="1.6461" ry="2.8119" fill="#000000" stroke="none"/>
                <polyline fill="none" stroke="#000000" stroke-linecap="round" stroke-linejoin="round" stroke-miterlimit="10" stroke-width="2" points="31.9328,47.2287 36.037,50.0204 39.8495,47.2287"/>
                <path fill="none" stroke="#000000" stroke-linecap="round" stroke-linejoin="round" stroke-miterlimit="10" stroke-width="2" d="M36.037,50.0204v4.2708c0,0-1.1042,3.6875-5.5417,2.875"/>
                <path fill="none" stroke="#000000" stroke-linecap="round" stroke-linejoin="round" stroke-miterlimit="10" stroke-width="2" d="M15.8717,48.4759c-4.8928-7.2535-2.0014-15.8722-2.0014-15.8722s-5.25-14.875-0.4375-21.25c0,0,9.1875,1.5,15.6875,7.375 c4.5946-1.9379,9.1575-2.0128,13.6875-0.1437c6.5-5.875,15.6875-7.375,15.6875-7.375c4.8125,6.375-0.4375,21.25-0.4375,21.25 s2.8914,8.6187-2.0014,15.8722"/>
                <path fill="none" stroke="#000000" stroke-linecap="round" stroke-linejoin="round" stroke-miterlimit="10" stroke-width="2" d="M14.7453,15.1037c0,0,12.8125,6.1875,10.0625,11.8125"/>
                <path fill="none" stroke="#000000" stroke-linecap="round" stroke-linejoin="round" stroke-miterlimit="10" stroke-width="2" d="M24.8491,50.8753c0,0-9.3615-0.458-13.6525,7.5243"/>
                <path fill="none" stroke="#000000" stroke-linecap="round" stroke-linejoin="round" stroke-miterlimit="10" stroke-width="2" d="M35.8911,49.8767v4.2708c0,0,1.1042,3.6875,5.5417,2.875"/>
                <path fill="none" stroke="#000000" stroke-linecap="round" stroke-linejoin="round" stroke-miterlimit="10" stroke-width="2" d="M57.1828,14.96c0,0-12.8125,6.1875-10.0625,11.8125"/>
                <path fill="none" stroke="#000000" stroke-linecap="round" stroke-linejoin="round" stroke-miterlimit="10" stroke-width="2" d="M47.2048,54.6836c0,0,8.2116,2.2454,8.6795,11.2958"/>
                <path fill="none" stroke="#000000" stroke-linecap="round" stroke-linejoin="round" stroke-miterlimit="10" stroke-width="2" d="M48.079,50.7316c0,0,9.3615-0.458,13.6525,7.5243"/>
                <path fill="none" stroke="#000000" stroke-linecap="round" stroke-linejoin="round" stroke-miterlimit="10" stroke-width="2" d="M31.3859,60.7598c3.88,1.6845,5.6481,1.8093,9.3021,0"/>
                <path fill="none" stroke="#000000" stroke-linecap="round" stroke-linejoin="round" stroke-miterlimit="10" stroke-width="2" d="M25.4446,54.6836c0,0-8.2116,2.2454-8.6795,11.2958"/>
            </g>
  </symbol>
  <symbol xmlns="http://www.w3.org/2000/svg" viewBox="0 0 64 64" id="catHead4">
        <path d="M61.959 43.01c.025-.311.041-.619.041-.93v-2.891l-.387.084c.209-1.219.281-2.674.084-4.373l-.582-5.05l-.377.412a15.277 15.277 0 0 0-.514-2.957c1.055-6.184.951-14.225-.344-24.055L59.717 2l-1.238.164c-7.149.959-13.893 4.025-18.993 7.512c-2.312-.5-4.802-.766-7.486-.766c-2.682 0-5.174.266-7.486.766c-5.1-3.486-11.842-6.553-18.991-7.512L4.284 2l-.165 1.25c-1.295 9.83-1.398 17.871-.344 24.055a15.43 15.43 0 0 0-.514 2.957l-.376-.412l-.582 5.05c-.196 1.699-.124 3.154.085 4.373L2 39.189v2.891c0 .311.016.621.042.932a7.391 7.391 0 0 0 2.078 5.912c1.828 2.865 4.803 5.516 8.8 7.771C18.716 59.967 26.027 62 32 62c5.973 0 13.284-2.033 19.081-5.305c3.998-2.256 6.971-4.904 8.799-7.77a7.391 7.391 0 0 0 2.079-5.915m-2.502-5.119l-.016-.018a13.56 13.56 0 0 0-1.365-1.242l1.33-1.457c.117 1.017.117 1.918.051 2.717M57.564 4.857c.809 6.576 1.043 12.361.732 17.225c-.029-.689-.148-1.377-.412-2.02l.423-.062l-1.682-2.906c.338-1.971.592-5.398-.533-9.473c-3.893 1.619-6.9 4.439-8.025 5.592c-1.615-1.09-3.402-1.971-5.348-2.648c4.217-2.581 9.375-4.774 14.845-5.708m-51.128 0c5.471.934 10.63 3.127 14.847 5.707c-1.947.678-3.733 1.559-5.348 2.648c-1.126-1.152-4.133-3.973-8.026-5.592c-1.124 4.074-.87 7.5-.532 9.473L5.694 20l.422.063c-.264.643-.384 1.33-.412 2.02c-.311-4.864-.076-10.649.732-17.226M4.594 35.174l1.332 1.459c-.48.383-.94.793-1.366 1.24l-.017.02a13.612 13.612 0 0 1 .051-2.719M32 59.656c-7.365 0-17.323-3.387-23.072-8.662c1.815-.01 3.767-.799 5.56-2.684c4.956-5.209 5.519-14.799 5.575-16.138c2.488-.328 5.137-.391 8.076-.09c.486.051.904-.23.801-.678c-1.646-7.204-10.912-9.922-16.609-6.525a.584.584 0 0 0 .166 1.094c2.693.403 5.549.861 8.255 2.361c-4.019.668-7.25 2.73-9.001 4.83a.573.573 0 0 0-.132.457c-1.867.646-3.781 1.547-5.442 2.811c-.424-1.547-1.233-5.406-.021-9.037l1.989 1.488s-.604-1.904-.049-3.208l.859.684s-2.036-4.49-.143-6.211c.767 2.572 1.673 2.611 1.725 2.611h.003s-1.146-1.984-.254-2.816c.365.598.705.801.979.801c.411 0 .675-.457.653-.727c-.049-.596.18-1.438-2.496-1.834c.369-.637 1.193-.826 2.049-.826c1.275 0 2.619.424 2.619.424s-.086-1.342-1.854-1.342l-.107.002c.556-.834 1.37-1.078 2.13-1.078c1.056 0 2.006.469 2.006.469l-.006.018a19.5 19.5 0 0 1 2.254-1.471c.62 1.418 1.458 2.064 2.483 3.959c1.465-2.705 2.537-4.277 3.139-6.174a27.468 27.468 0 0 1 2.77-.553c.775 3.49 2.555 6.191 5.094 10.877c2.577-4.756 4.333-7.416 5.096-10.879c.969.141 1.887.332 2.771.555c.607 1.918 1.688 3.504 3.135 6.174c1.035-1.914 1.873-2.555 2.488-3.959c.791.451 1.553.932 2.254 1.471l-.006-.018s.949-.469 2.006-.469c.76 0 1.574.244 2.129 1.078l-.107-.002c-1.768 0-1.854 1.342-1.854 1.342s1.344-.426 2.619-.424c.855 0 1.68.189 2.049.826c-2.676.396-2.447 1.238-2.496 1.834c-.021.27.242.727.652.727c.275 0 .615-.203.98-.801c.893.832-.254 2.816-.254 2.816h.002c.053 0 .959-.039 1.725-2.611c1.895 1.721-.143 6.211-.143 6.211l.859-.684c.557 1.303-.049 3.208-.049 3.208l1.988-1.488c1.213 3.631.404 7.486-.02 9.035c-1.662-1.262-3.576-2.164-5.443-2.809a.57.57 0 0 0-.133-.457c-1.752-2.099-4.98-4.162-9.002-4.83c2.709-1.5 5.563-1.958 8.256-2.361a.584.584 0 0 0 .168-1.094c-5.699-3.397-14.965-.679-16.611 6.525c-.102.447.316.729.801.678c2.941-.301 5.59-.238 8.08.09c.055 1.341.617 10.927 5.572 16.138c1.795 1.885 3.746 2.674 5.561 2.684C49.324 56.27 39.365 59.656 32 59.656" fill="#000000"></path><path d="M31.998 43c.744 0 1.67-.287 2.639-1.197c1.535-1.441 1.982-3.111 1.404-3.785C35.23 37.072 32.742 37 31.998 37c-.742 0-3.232.072-4.043 1.018c-.576.674-.131 2.344 1.406 3.785c.969.91 1.894 1.197 2.637 1.197" fill="#000000"></path><path d="M43.607 45.043C40.957 44.529 37.045 44 32 44c-5.045 0-8.959.529-11.607 1.043c-1.032.203-1.393.984-1.393 1.607C19 52.307 23.291 58 32 58c8.708 0 13-5.693 13-11.35c0-.623-.361-1.404-1.393-1.607zM32 56c-2.455 0-4.621-.529-6.502-1.432C27.312 53.596 29.468 53 32 53c2.53 0 4.688.596 6.499 1.568C36.621 55.471 34.455 56 32 56z" fill="#000000"></path>
  </symbol>
  <symbol xmlns="http://www.w3.org/2000/svg" viewBox="0 0 64 64" id="catHead5">
        <path d="M61.613 39.273c.209-1.219.281-2.674.084-4.373l-.582-5.051l-.377.412a15.277 15.277 0 0 0-.514-2.957c1.055-6.183.951-14.224-.344-24.054L59.717 2l-1.238.164c-7.149.96-13.893 4.026-18.993 7.512c-2.313-.5-4.803-.766-7.487-.766c-2.682 0-5.174.266-7.486.766c-5.1-3.486-11.842-6.553-18.991-7.512L4.284 2l-.165 1.25c-1.295 9.83-1.398 17.871-.344 24.054a15.43 15.43 0 0 0-.514 2.957l-.376-.411l-.582 5.05c-.196 1.699-.124 3.154.085 4.373L2 39.189v2.891c0 5.449 3.878 10.641 10.92 14.615C18.716 59.967 26.027 62 32 62c5.973 0 13.284-2.033 19.081-5.305C58.123 52.721 62 47.529 62 42.08v-2.891l-.387.084M57.564 4.858c.809 6.576 1.043 12.361.732 17.225c-.029-.689-.148-1.377-.412-2.02l.423-.063l-1.682-2.906c.338-1.971.592-5.398-.533-9.473c-3.893 1.619-6.9 4.439-8.025 5.592c-1.615-1.09-3.402-1.971-5.348-2.648c4.217-2.58 9.375-4.773 14.845-5.707m-51.128 0c5.471.934 10.63 3.127 14.847 5.707c-1.947.678-3.733 1.559-5.348 2.648c-1.126-1.152-4.133-3.973-8.026-5.592c-1.124 4.074-.87 7.5-.532 9.473L5.694 20l.422.063c-.264.643-.384 1.33-.412 2.02c-.311-4.864-.076-10.649.732-17.225M32 59.656c-10.965 0-27.692-7.498-27.692-17.576l1.848.398s-2.138-2.309-1.562-7.305l1.796 1.969s-1.796-5.07-.234-9.748l1.989 1.488s-.604-1.904-.049-3.207l.859.684s-.351-.779-.625-1.809c1.777.182 3.381.451 4.928.865c.031.008.06.02.09.028c-.054.042-.112.072-.164.118c-1.301 1.175-2.301 2.642-2.792 4.38c-.439 1.729-.325 3.506.09 5.15c.218.826.5 1.621.879 2.4l.156.299l.063.102l.097.125c.06.068.102.111.151.158c.191.18.38.318.575.441c.393.24.796.428 1.207.574c1.65.594 3.378.615 5.012.396a18.394 18.394 0 0 0 4.69-1.389c-1.582.346-3.166.65-4.75.656c-1.569.041-3.153-.156-4.519-.752a5.13 5.13 0 0 1-.94-.531a2.955 2.955 0 0 1-.37-.313l-.055-.063c.002.002.004.006.002.006a.393.393 0 0 0-.018-.027l-.112-.242a11.757 11.757 0 0 1-.688-2.172c-.334-1.484-.404-3.029-.021-4.436c.353-1.383 1.229-2.705 2.29-3.712a2.36 2.36 0 0 1 1.085-.59c.908.313 1.8.656 2.665 1.056c.63.295 1.244.613 1.849.949c-2.08.16-3.728 2.088-3.728 4.469c0 2.484 1.791 4.5 4 4.5s4-2.016 4-4.5c0-.637-.121-1.242-.334-1.793a33.014 33.014 0 0 1 2.438 2.211c-.203-1.885-1.129-3.654-2.371-5.115c-1.248-1.46-2.85-2.64-4.594-3.441a13.65 13.65 0 0 0-5.591-1.279c-1.839-.008-3.705.383-5.256 1.333c-.364-1.432-.552-3.292.52-4.267c.767 2.572 1.673 2.611 1.725 2.611h.003s-1.146-1.984-.254-2.816c.365.598.705.801.979.801c.411 0 .675-.457.653-.727c-.049-.596.18-1.438-2.496-1.834c.369-.637 1.193-.826 2.049-.826c1.275 0 2.619.424 2.619.424s-.086-1.342-1.854-1.342l-.107.002c.556-.834 1.37-1.078 2.13-1.078c1.056 0 2.006.469 2.006.469l-.006.018a19.5 19.5 0 0 1 2.254-1.471c.62 1.418 1.458 2.064 2.483 3.959c1.465-2.705 2.537-4.277 3.139-6.174a27.468 27.468 0 0 1 2.77-.553c.775 3.49 2.555 6.191 5.094 10.877c2.577-4.756 4.333-7.416 5.096-10.879c.969.141 1.887.332 2.771.555c.607 1.918 1.688 3.504 3.135 6.174c1.035-1.914 1.873-2.555 2.488-3.959c.791.451 1.553.932 2.254 1.471l-.006-.018s.949-.469 2.006-.469c.76 0 1.574.244 2.129 1.078l-.107-.002c-1.768 0-1.854 1.342-1.854 1.342s1.344-.426 2.619-.424c.855 0 1.68.189 2.049.826c-2.676.396-2.447 1.238-2.496 1.834c-.021.27.242.727.652.727c.275 0 .615-.203.98-.801c.893.832-.254 2.816-.254 2.816h.002c.053 0 .959-.039 1.725-2.611c1.072.975.885 2.835.52 4.267c-1.551-.95-3.418-1.341-5.258-1.333c-1.92.018-3.84.469-5.59 1.279c-1.744.801-3.348 1.98-4.596 3.441c-1.242 1.459-2.166 3.23-2.369 5.115a32.994 32.994 0 0 1 2.445-2.217a4.95 4.95 0 0 0-.338 1.799c0 2.484 1.789 4.5 4 4.5c2.209 0 4-2.016 4-4.5c0-2.381-1.65-4.311-3.73-4.469a28.425 28.425 0 0 1 1.848-.947a28.008 28.008 0 0 1 2.664-1.058c.387.099.754.271 1.086.59c1.061 1.007 1.938 2.33 2.291 3.712c.383 1.408.313 2.951-.021 4.436c-.16.742-.393 1.486-.689 2.172l-.113.244c.033-.055-.014.021-.016.027c-.002-.002 0-.006.002-.008l-.055.063a2.969 2.969 0 0 1-.371.313a5.155 5.155 0 0 1-.939.531c-1.367.596-2.949.793-4.52.752c-1.584-.006-3.168-.311-4.75-.656a18.398 18.398 0 0 0 4.689 1.389c1.635.219 3.363.197 5.014-.396a6.4 6.4 0 0 0 1.205-.574c.197-.123.385-.262.576-.441c.051-.047.092-.09.152-.158l.096-.125l.064-.102l.154-.299c.381-.779.662-1.574.881-2.398c.414-1.646.527-3.424.09-5.15c-.492-1.74-1.492-3.208-2.793-4.382c-.053-.046-.109-.077-.164-.119c.029-.008.059-.02.088-.027c1.549-.414 3.152-.684 4.93-.865c-.273 1.029-.625 1.809-.625 1.809l.859-.684c.557 1.302-.049 3.207-.049 3.207l1.988-1.488c1.563 4.678-.234 9.748-.234 9.748l1.797-1.969c.576 4.996-1.563 7.305-1.563 7.305l1.85-.398C59.693 52.158 42.967 59.656 32 59.656" fill="#000000"></path><path d="M32 43.75c.744 0 1.67-.287 2.639-1.197c1.535-1.441 1.982-3.111 1.404-3.785c-.811-.946-3.299-1.018-4.043-1.018c-.742 0-3.232.072-4.043 1.018c-.576.674-.131 2.344 1.406 3.785c.969.91 1.894 1.197 2.637 1.197" fill="#000000"></path><path d="M43.318 46.844c-3.164 2.35-11.25 4.123-16.592 2.854c-1.432-.34-2.449 3.373-.922 3.76c5.803 1.402 15.055.045 19.846-3.518c1.184-.901-1.154-4.001-2.332-3.096" fill="#000000"></path>
  </symbol>
  <symbol xmlns="http://www.w3.org/2000/svg" viewBox="0 0 64 64" id="catHead6">
    <path d="M59.493 2.23C56.972.69 45.092 7.145 37.77 13.472a48.043 48.043 0 0 0-5.992-.367a48.48 48.48 0 0 0-5.603.32C18.849 7.112 7.021.694 4.506 2.23c-3.017 1.842-3.347 19.21-.788 28.854c-1.29 4.39-1.565 8.841-1.565 12.4C2.153 47.979 15.419 62 31.778 62c16.36 0 29.625-14.021 29.625-18.516c0-3.345-.242-7.479-1.342-11.609c2.797-9.451 2.534-27.751-.568-29.645M45.102 31.525c-.551.629-.99 2.163-.99 4.61c0 6.583 3.174 6.583 3.174 0c0-2.825-.584-4.43-1.252-4.831c5.295-.978 8.129 3.426 8.129 3.426s-.243 5.695-5.989 7.225c-5.745 1.528-8.823-3.283-8.823-3.283s.247-5.521 5.751-7.147m-20.895 7.147s-3.079 4.812-8.825 3.283c-5.744-1.529-5.987-7.225-5.987-7.225s2.836-4.403 8.128-3.426c-.667.401-1.252 2.006-1.252 4.831c0 6.583 3.175 6.583 3.175 0c0-2.447-.439-3.981-.99-4.609c5.503 1.625 5.751 7.146 5.751 7.146M9.534 11.319c.731-.448 4.87 1.364 8.942 3.841c-4.57 1.644-7.879 4.154-10.265 7.104c-.125-5.243.473-10.427 1.323-10.945m22.244 49.632c-12.006 0-23.636-10.186-23.637-10.186c0 0 10.898-3.611 14.989-6.796c2.581-2.01 5.435-8.671 8.648-8.671s6.068 6.661 8.649 8.671c4.09 3.185 14.989 6.796 14.989 6.796c-.001.001-11.632 10.186-23.638 10.186m23.994-38.143c-2.367-3.124-5.715-5.797-10.417-7.544c4.127-2.529 8.368-4.398 9.11-3.944c.881.534 1.49 6.064 1.307 11.488" fill="#000000"></path><path d="M37.067 53.835c-1.078-.081-2.098-.427-2.916-1.089c-.818-.638-1.422-1.55-1.596-2.554l-.055-.324c.583-.149 1.233-.492 1.905-1.155c1.528-1.51 1.973-3.257 1.397-3.963c-.808-.988-3.284-1.064-4.024-1.064c-.739 0-3.217.076-4.024 1.064c-.573.706-.13 2.453 1.399 3.963c.671.663 1.321 1.006 1.903 1.155l-.056.324c-.177 1.003-.776 1.917-1.597 2.553c-.801.661-1.873 1.006-2.89 1.087c-1.123.05-2.179-.188-3.149-.78a5.027 5.027 0 0 1-2.167-2.696c.056 1.271.738 2.51 1.718 3.364c.97.854 2.297 1.356 3.548 1.412c1.279.072 2.511-.283 3.603-.98c-.01.107-.022.213-.022.323c0 1.406.777 2.546 1.734 2.546s1.735-1.14 1.735-2.546c0-.111-.013-.218-.022-.325c1.082.696 2.355 1.053 3.577.98a5.888 5.888 0 0 0 3.572-1.412c.978-.854 1.661-2.092 1.719-3.362a5.025 5.025 0 0 1-2.167 2.698c-.955.592-2.059.833-3.125.781" fill="#000000"></path>
  </symbol>
  <symbol xmlns="http://www.w3.org/2000/svg" viewBox="0 0 512 512" id="catHead7">
    <g>
        <path class="st0" d="M481.875,299.344L512,292.219l-4.656-19.641l-24.25,5.734c0-0.328,0.016-0.641,0.016-0.969
            c0-38.078-10.531-72.781-28.969-102.359c15.438-53.938-13.438-124.547-13.438-124.547S387.813,73,357.719,100.297
            C327.109,91.063,292.578,88.094,256,88.094c-36.766,0-71.484,2.563-102.203,11.781c-30.156-27.109-82.5-49.438-82.5-49.438
            S42.406,121.063,57.859,175c-18.422,29.578-28.984,64.281-28.984,102.344c0,0.328,0.031,0.641,0.031,0.969l-24.25-5.734L0,292.219
            l30.109,7.125c2.672,23.578,9.672,44.75,20.234,63.422L12.875,377.75l7.484,18.75l41.203-16.484
            c39.797,53.141,111.969,81.547,194.438,81.547c82.453,0,154.641-28.406,194.438-81.547l41.203,16.484l7.484-18.75l-37.469-14.984
            C472.219,344.094,479.219,322.922,481.875,299.344z"/>
    </g>
  </symbol>
  <symbol xmlns="http://www.w3.org/2000/svg" viewBox="0 0 36 36" id="catHead8">
    <path fill="#FFCC4D" d="M35.734 19.929C35.375 16.66 35 15 34 13c0 0 3-9 1-12.7c-.674-1.246-7.404 1.688-10 3.7c0 0-4-.998-7-.998S11 4 11 4C8.404 1.988 1.674-.946 1 .3C-1 4 2 13 2 13C1 15 .625 16.66.266 19.929C-.129 23.513.657 26.37 1 27c.39.716 2.367 3.025 5 5c4 3 10 4 12 4s8-1 12-4c2.633-1.975 4.61-4.284 5-5c.343-.63 1.129-3.487.734-7.071z">

        </path>

        <path fill="#E75A70" d="M18 19.5c3 0 3 .5 3 1.5s-1.5 3-3 3s-3-2-3-3s-.001-1.5 3-1.5z">

        </path>

        <path fill="#F18F26" d="M2 3c.447-1.342 5.64 1 6.64 2C8.64 5 4 8 3 11c0 0-2-5-1-8zm32 0c-.447-1.342-5.64 1-6.64 2c0 0 4.64 3 5.64 6c0 0 2-5 1-8z">

        </path>

        <path fill="#FFCC4D" d="M4.934 5.603C4.934 4.189 11 7 10 8s-2 1.603-3 2.603s-2.066-4-2.066-5zm26.132 0C31.066 4.189 25 7 26 8s2 1.603 3 2.603s2.066-4 2.066-5z">

        </path>

        <path fill="#FEE7B8" d="M.701 25a.5.5 0 0 1-.31-.892c.162-.127 4.02-3.12 10.648-2.605c.275.02.481.261.46.536c-.021.275-.257.501-.537.46c-6.233-.474-9.915 2.366-9.951 2.395a.51.51 0 0 1-.31.106zm8.868-4.663a.512.512 0 0 1-.149-.022c-4.79-1.497-8.737-.347-8.777-.336a.499.499 0 1 1-.288-.957c.173-.052 4.286-1.247 9.362.338a.5.5 0 0 1-.148.977zM35.299 25a.5.5 0 0 0 .31-.892c-.162-.127-4.02-3.12-10.648-2.605a.499.499 0 0 0-.46.536c.021.275.257.501.537.46c6.233-.474 9.915 2.366 9.951 2.395a.51.51 0 0 0 .31.106zm-8.868-4.663c.049 0 .1-.007.149-.022c4.79-1.497 8.737-.347 8.777-.336a.499.499 0 1 0 .288-.957c-.173-.052-4.286-1.247-9.362.338a.5.5 0 0 0 .148.977z">

        </path>

        <path fill="#292F33" d="M25.327 25.622a.5.5 0 0 0-.551-.069l-4 2c-1.871.935-6.727.947-6.776.947a.5.5 0 0 0-.25.933v.001h.001v.001c.071.04.153.063.24.065h7.008c2.658 0 4.089-2.186 4.475-3.342a.5.5 0 0 0-.147-.536z">

        </path>

        <g fill="#292F33">

        <ellipse cx="12" cy="14.5" rx="2" ry="3.5">

        </ellipse>

        <ellipse cx="24" cy="14.5" rx="2" ry="3.5">

        </ellipse>

        <path d="M21 12a.999.999 0 0 1-.707-1.707C24.537 6.049 28.819 6 29 6a1 1 0 0 1 .005 2c-.065.001-3.687.096-7.298 3.707A.997.997 0 0 1 21 12zm-6 0a.997.997 0 0 1-.707-.293C10.667 8.082 7.031 8 6.995 8a1.002 1.002 0 0 1-.992-1.005A.997.997 0 0 1 7 6c.18 0 4.463.049 8.707 4.293A.999.999 0 0 1 15 12z">

        </path>

        </g>

  </symbol>
</svg>
